# xmcd
#
# Track frame offsets: 
#        150
#        13228
#        25791
#        39411
#        51802
#        64744
#        77805
#        88216
#        100518
#        112221
#        123315
#        134230
#        145783
#        156584
#        167224
#        178337
#        188285
#        198207
#        209535
#        224294
#        235479
#        246555
#        254329
#        263094
#        273888
#
# Disc length: 3783 seconds
#
# Revision: 0
# Processed by: cddbd v1.5.2PL0 Copyright (c) Steve Scherf et al.
# Submitted via: ExactAudioCopy v0.99pb3
#
DISCID=7a0ec519
DTITLE=Cousin Joe - The Complete Recordings 1947-1955 Vol. 3
DYEAR=1997
DGENRE=Blues
TTITLE0=Beggin' Woman
TTITLE1=Sadie Brown
TTITLE2=Evolution Blues
TTITLE3=Box Car Shorty's Confession
TTITLE4=Looking For My Baby
TTITLE5=High-Powered Gal
TTITLE6=Chicken A La Blues
TTITLE7=Poor Man Blues
TTITLE8=Living On Borrowed Time
TTITLE9=Lovesick Soul
TTITLE10=Second Hand Love
TTITLE11=Dinah
TTITLE12=Won't Settle Down
TTITLE13=Misery
TTITLE14=A.B.C.'s pt.1
TTITLE15=A.B.C.'s pt 2
TTITLE16=How Long Must I Wait
TTITLE17=Sleep Walking Woman
TTITLE18=I Saw Mommy Kissin' Santa Claus
TTITLE19=Easy Rockin'
TTITLE20=Hole In The Ground
TTITLE21=You'll Never Get Nothing Without Trying
TTITLE22=Ramblin' Woman (Thomas Jefferson Blues)
TTITLE23=Feel Like A Million
TTITLE24=Old Man's Sweetheart
EXTD=
EXTT0=
EXTT1=
EXTT2=
EXTT3=
EXTT4=
EXTT5=
EXTT6=
EXTT7=
EXTT8=
EXTT9=
EXTT10=
EXTT11=
EXTT12=
EXTT13=
EXTT14=
EXTT15=
EXTT16=
EXTT17=
EXTT18=
EXTT19=
EXTT20=
EXTT21=
EXTT22=
EXTT23=
EXTT24=
PLAYORDER=
